<svg xmlns="http://www.w3.org/2000/svg" viewBox="10 200 150 600"><g id="freepik--Ball--inject-5"><circle cx="55.78" cy="244.04" r="11.74" style="fill:#e0e0e0"></circle><path d="M67.52,244a21.89,21.89,0,0,0-.46-2.84,11.75,11.75,0,0,0-4.29-6.35,11.53,11.53,0,0,0-10.91-1.61A10.7,10.7,0,0,0,49,234.81a10.58,10.58,0,0,0-2.42,2.44,11.45,11.45,0,0,0,0,13.58,11.48,11.48,0,0,0,5.33,4,11.53,11.53,0,0,0,10.91-1.61,11.75,11.75,0,0,0,4.29-6.35,21.89,21.89,0,0,0,.46-2.84,3.33,3.33,0,0,1,0,.75,5.37,5.37,0,0,1-.07.91,8.25,8.25,0,0,1-.22,1.23A11.65,11.65,0,0,1,63,253.52a11.85,11.85,0,0,1-5,2.27,12,12,0,0,1-6.29-.49,11.05,11.05,0,0,1-3-1.63,10.94,10.94,0,0,1-2.54-2.54,11.91,11.91,0,0,1,0-14.18,10.94,10.94,0,0,1,2.54-2.54,11.05,11.05,0,0,1,3-1.63,12,12,0,0,1,6.29-.49,11.85,11.85,0,0,1,5,2.27,11.65,11.65,0,0,1,4.25,6.59,8.25,8.25,0,0,1,.22,1.23,5.37,5.37,0,0,1,.07.91A3.33,3.33,0,0,1,67.52,244Z" style="fill:#263238"></path><path d="M66.3,239.2a3.3,3.3,0,0,1-.6.74,17,17,0,0,1-2,1.71,18.85,18.85,0,0,1-16.34,3.1,16.25,16.25,0,0,1-2.44-.88,2.73,2.73,0,0,1-.83-.47c0-.09,1.26.5,3.36,1a19.9,19.9,0,0,0,16-3C65.31,240.13,66.23,239.14,66.3,239.2Z" style="fill:#263238"></path><path d="M67.32,242.61a3.14,3.14,0,0,1-.63.74,16.94,16.94,0,0,1-2,1.73,19.83,19.83,0,0,1-16.77,3.07,16.11,16.11,0,0,1-2.51-.88,3.24,3.24,0,0,1-.86-.46c0-.09,1.29.5,3.45,1a21.49,21.49,0,0,0,8.56.2,21.22,21.22,0,0,0,7.92-3.22C66.29,243.55,67.26,242.54,67.32,242.61Z" style="fill:#263238"></path></g></svg>
