<svg xmlns="http://www.w3.org/2000/svg" viewBox="0 0 500 500"><g id="freepik--Stadium--inject-75"><g id="freepik--stadium--inject-75"><g id="freepik--Puck--inject-75"><path d="M40.37,115.36a1.24,1.24,0,0,0-.73-1,3.92,3.92,0,0,0-3.56,0,1.26,1.26,0,0,0-.74,1V285.51a1.25,1.25,0,0,0,.74,1,3.92,3.92,0,0,0,3.56,0,1.23,1.23,0,0,0,.73-1Z" style="fill:#ebebeb"></path><path d="M36.08,114.33a1.26,1.26,0,0,0-.74,1,1.27,1.27,0,0,0,.74,1,4,4,0,0,0,3.56,0,1.26,1.26,0,0,0,.73-1,1.24,1.24,0,0,0-.73-1A3.92,3.92,0,0,0,36.08,114.33Z" style="fill:#f0f0f0"></path></g><g id="freepik--puck--inject-75"><path d="M119.52,67.75a1.25,1.25,0,0,0-.74-1,3.92,3.92,0,0,0-3.56,0,1.25,1.25,0,0,0-.74,1V237.9a1.26,1.26,0,0,0,.74,1,3.92,3.92,0,0,0,3.56,0,1.26,1.26,0,0,0,.74-1Z" style="fill:#ebebeb"></path><path d="M115.22,66.73a1.08,1.08,0,0,0,0,2,3.92,3.92,0,0,0,3.56,0,1.08,1.08,0,0,0,0-2A3.92,3.92,0,0,0,115.22,66.73Z" style="fill:#f0f0f0"></path></g><g id="freepik--puck--inject-75"><path d="M203.55,45.15a1.23,1.23,0,0,0-.73-1,3.92,3.92,0,0,0-3.56,0,1.25,1.25,0,0,0-.74,1V215.3a1.27,1.27,0,0,0,.74,1,3.92,3.92,0,0,0,3.56,0,1.26,1.26,0,0,0,.73-1Z" style="fill:#ebebeb"></path><path d="M199.26,44.13a1.25,1.25,0,0,0-.74,1,1.26,1.26,0,0,0,.74,1,3.92,3.92,0,0,0,3.56,0,1.08,1.08,0,0,0,0-2A3.92,3.92,0,0,0,199.26,44.13Z" style="fill:#f0f0f0"></path></g><g id="freepik--puck--inject-75"><path d="M457,115.36a1.26,1.26,0,0,1,.74-1,3.92,3.92,0,0,1,3.56,0,1.24,1.24,0,0,1,.73,1V285.51a1.23,1.23,0,0,1-.73,1,3.92,3.92,0,0,1-3.56,0,1.25,1.25,0,0,1-.74-1Z" style="fill:#ebebeb"></path><path d="M461.32,114.33a1.24,1.24,0,0,1,.73,1,1.26,1.26,0,0,1-.73,1,4,4,0,0,1-3.56,0,1.27,1.27,0,0,1-.74-1,1.26,1.26,0,0,1,.74-1A3.92,3.92,0,0,1,461.32,114.33Z" style="fill:#f0f0f0"></path></g><g id="freepik--puck--inject-75"><path d="M377.88,67.75a1.25,1.25,0,0,1,.74-1,3.92,3.92,0,0,1,3.56,0,1.23,1.23,0,0,1,.73,1V237.9a1.24,1.24,0,0,1-.73,1,3.92,3.92,0,0,1-3.56,0,1.26,1.26,0,0,1-.74-1Z" style="fill:#ebebeb"></path><path d="M382.18,66.73a1.08,1.08,0,0,1,0,2,3.92,3.92,0,0,1-3.56,0,1.08,1.08,0,0,1,0-2A3.92,3.92,0,0,1,382.18,66.73Z" style="fill:#f0f0f0"></path></g><g id="freepik--puck--inject-75"><path d="M293.84,45.15a1.25,1.25,0,0,1,.74-1,3.92,3.92,0,0,1,3.56,0,1.25,1.25,0,0,1,.74,1V215.3a1.27,1.27,0,0,1-.74,1,3.92,3.92,0,0,1-3.56,0,1.27,1.27,0,0,1-.74-1Z" style="fill:#ebebeb"></path><path d="M298.14,44.13a1.25,1.25,0,0,1,.74,1,1.26,1.26,0,0,1-.74,1,3.92,3.92,0,0,1-3.56,0,1.08,1.08,0,0,1,0-2A3.92,3.92,0,0,1,298.14,44.13Z" style="fill:#f0f0f0"></path></g><path d="M482.89,249.26c-12.09-17.8-31.07-34.49-56.94-48.82-97.17-53.81-254.73-53.81-351.9,0-25.87,14.33-44.85,31-56.94,48.82v68.32H482.89Z" style="fill:#f0f0f0"></path><path d="M482.89,251.26a2,2,0,0,1-1.65-.87C468.92,232.26,450,216,425,202.19c-96.48-53.43-253.48-53.43-350,0C50,216,31.08,232.26,18.76,250.39a2,2,0,1,1-3.31-2.25c12.68-18.66,32.07-35.29,57.63-49.45,97.56-54,256.29-54,353.84,0,25.56,14.16,44.95,30.8,57.63,49.45a2,2,0,0,1-.53,2.78A2,2,0,0,1,482.89,251.26Z" style="fill:#ebebeb"></path><path d="M482.89,148a.5.5,0,0,1-.41-.22c-12.46-18.33-31.56-34.7-56.77-48.67-96.89-53.65-254.53-53.65-351.42,0-25.22,14-44.32,30.34-56.77,48.67a.5.5,0,0,1-.83-.57c12.55-18.45,31.76-34.93,57.12-49,97.15-53.8,255.23-53.8,352.38,0,25.36,14,44.57,30.52,57.12,49a.5.5,0,0,1-.14.69A.47.47,0,0,1,482.89,148Z" style="fill:#e0e0e0"></path></g></g><g id="freepik--Floor--inject-75"><g id="freepik--floor--inject-75"><path id="freepik--floor--inject-75" d="M77.66,245.56c-95.18,55-95.17,144.05,0,199s249.49,54.95,344.67,0,95.17-144,0-199S172.84,190.61,77.66,245.56Z" style="fill:#e0e0e0"></path><path d="M388.05,308.31h0L211.12,206.15c-1.88.18-3.75.36-5.63.56l179.27,103.5L216.45,407.38,22.06,295.15c-.61.93-1.19,1.86-1.76,2.79L213.15,409.29h0L280.24,448l23.39,13.5h0l.82.48,174.9-101ZM358.89,329l40.71,23.5-110,63.5-40.71-23.5ZM304.45,458.19l-84.71-48.9,25.87-14.94,84.71,48.91Zm29.16-16.83-40.71-23.5,110-63.51,40.7,23.51ZM362.19,327l25.86-14.93,66.05,38.14L472.76,361,446.9,376Z" style="fill:#fff"></path></g></g><g id="freepik--Clouds--inject-75"><path id="freepik--Cloud--inject-75" d="M29.35,57.15c-2.52-.38-4.2-1.2-4.53-2.53a3.41,3.41,0,0,1,2.09-3.57,11.14,11.14,0,0,1,5.43-.66c-.24-2.32,1.89-5,4-6.22s5.92-1.43,8.07.34c.62-4.14,3.29-6.17,7.46-7.63a10.91,10.91,0,0,1,10.7,2.06c2.42-4.53,9.63-7.24,17-4.27a12.86,12.86,0,0,1,6.68,6.24A14.58,14.58,0,0,1,87.41,46a6.49,6.49,0,0,1,6.86-.34,5.34,5.34,0,0,1,2.5,4.8,13.62,13.62,0,0,1,4.45,1c1.6.67,3.27,2.18,2.69,3.76-.44,1.2-1.94,1.68-3.25,1.86a19.78,19.78,0,0,1-7.81-.49,14,14,0,0,1-16-.38,27.57,27.57,0,0,1-3.3,2.13,13,13,0,0,1-3.83,1c-2.24.24-5.39-.18-7.14-1.65a1,1,0,0,0-1.54-.21,10.34,10.34,0,0,1-10.91-.78,10.38,10.38,0,0,1-14.45-.58A11.62,11.62,0,0,1,29.35,57.15Z" style="fill:#f5f5f5"></path><path id="freepik--cloud--inject-75" d="M168.52,42c1.83-.27,3.06-.86,3.3-1.83a2.48,2.48,0,0,0-1.52-2.6,8,8,0,0,0-4-.48c.17-1.69-1.38-3.68-2.91-4.52s-4.3-1-5.86.24c-.46-3-2.39-4.49-5.43-5.55a8,8,0,0,0-7.79,1.5c-1.76-3.29-7-5.26-12.39-3.11a9.35,9.35,0,0,0-4.86,4.55,10.57,10.57,0,0,0-.82,3.71,4.71,4.71,0,0,0-5-.24,3.84,3.84,0,0,0-1.82,3.48,10,10,0,0,0-3.23.75c-1.17.49-2.39,1.59-2,2.74.32.87,1.4,1.22,2.36,1.35a14.32,14.32,0,0,0,5.68-.35,10.19,10.19,0,0,0,11.61-.28,19,19,0,0,0,2.4,1.55,9.29,9.29,0,0,0,2.79.74,7.52,7.52,0,0,0,5.19-1.2,1.09,1.09,0,0,1,.6-.33,1,1,0,0,1,.52.18,7.54,7.54,0,0,0,7.94-.57,7.61,7.61,0,0,0,5.35,1.92,7.53,7.53,0,0,0,5.16-2.34A8.27,8.27,0,0,0,168.52,42Z" style="fill:#f5f5f5"></path></g><g id="freepik--Wicket--inject-75"><g id="freepik--wicket--inject-75"><path d="M357.65,273.88a1.76,1.76,0,0,0-1-1.45,5.57,5.57,0,0,0-5,0,1.78,1.78,0,0,0-1,1.45V406.36a1.78,1.78,0,0,0,1,1.46,5.57,5.57,0,0,0,5,0,1.76,1.76,0,0,0,1-1.46Z" style="fill:#263238"></path><path d="M357.66,403.33v3a1.76,1.76,0,0,1-1,1.45,5.51,5.51,0,0,1-5,0,1.76,1.76,0,0,1-1-1.45v-3a1.76,1.76,0,0,0,1,1.45,5.57,5.57,0,0,0,5,0A1.76,1.76,0,0,0,357.66,403.33Z" style="fill:#000000"></path><path d="M357.66,285v3a1.76,1.76,0,0,1-1,1.45,5.51,5.51,0,0,1-5,0,1.76,1.76,0,0,1-1-1.45v-3a1.76,1.76,0,0,0,1,1.45,5.57,5.57,0,0,0,5,0A1.76,1.76,0,0,0,357.66,285Z" style="fill:#000000"></path><path d="M357.66,292.88v3a1.76,1.76,0,0,1-1,1.45,5.51,5.51,0,0,1-5,0,1.76,1.76,0,0,1-1-1.45v-3a1.76,1.76,0,0,0,1,1.45,5.57,5.57,0,0,0,5,0A1.76,1.76,0,0,0,357.66,292.88Z" style="fill:#000000"></path><path d="M357.66,300.73v3a1.76,1.76,0,0,1-1,1.45,5.51,5.51,0,0,1-5,0,1.76,1.76,0,0,1-1-1.45v-3a1.76,1.76,0,0,0,1,1.45,5.57,5.57,0,0,0,5,0A1.76,1.76,0,0,0,357.66,300.73Z" style="fill:#000000"></path><path d="M351.58,272.43a1.53,1.53,0,0,0,0,2.9,5.51,5.51,0,0,0,5,0,1.53,1.53,0,0,0,0-2.9A5.57,5.57,0,0,0,351.58,272.43Z" style="fill:#455a64"></path><path d="M371.81,265.71a1.78,1.78,0,0,0-1-1.45,5.57,5.57,0,0,0-5,0,1.78,1.78,0,0,0-1,1.45V398.19a1.76,1.76,0,0,0,1,1.45,5.57,5.57,0,0,0,5,0,1.76,1.76,0,0,0,1-1.45Z" style="fill:#263238"></path><path d="M371.81,395.16v3a1.76,1.76,0,0,1-1,1.45,5.51,5.51,0,0,1-5,0,1.76,1.76,0,0,1-1-1.45v-3a1.76,1.76,0,0,0,1,1.45,5.57,5.57,0,0,0,5,0A1.76,1.76,0,0,0,371.81,395.16Z" style="fill:#000000"></path><path d="M371.81,276.85v3a1.76,1.76,0,0,1-1,1.45,5.51,5.51,0,0,1-5,0,1.76,1.76,0,0,1-1-1.45v-3a1.76,1.76,0,0,0,1,1.45,5.57,5.57,0,0,0,5,0A1.76,1.76,0,0,0,371.81,276.85Z" style="fill:#000000"></path><path d="M371.81,284.7v3a1.76,1.76,0,0,1-1,1.45,5.51,5.51,0,0,1-5,0,1.76,1.76,0,0,1-1-1.45v-3a1.76,1.76,0,0,0,1,1.45,5.57,5.57,0,0,0,5,0A1.76,1.76,0,0,0,371.81,284.7Z" style="fill:#000000"></path><path d="M371.81,292.56v3a1.76,1.76,0,0,1-1,1.45,5.51,5.51,0,0,1-5,0,1.76,1.76,0,0,1-1-1.45v-3a1.76,1.76,0,0,0,1,1.45,5.57,5.57,0,0,0,5,0A1.76,1.76,0,0,0,371.81,292.56Z" style="fill:#000000"></path><path d="M365.74,264.26a1.53,1.53,0,0,0,0,2.9,5.57,5.57,0,0,0,5,0,1.53,1.53,0,0,0,0-2.9A5.57,5.57,0,0,0,365.74,264.26Z" style="fill:#455a64"></path><path d="M386,257.54a1.74,1.74,0,0,0-1-1.45,5.55,5.55,0,0,0-5,0,1.76,1.76,0,0,0-1,1.45V390a1.76,1.76,0,0,0,1,1.45,5.55,5.55,0,0,0,5,0,1.74,1.74,0,0,0,1-1.45Z" style="fill:#263238"></path><path d="M386,387v3a1.76,1.76,0,0,1-1,1.45,5.51,5.51,0,0,1-5,0,1.76,1.76,0,0,1-1-1.45v-3a1.76,1.76,0,0,0,1,1.45,5.57,5.57,0,0,0,5,0A1.76,1.76,0,0,0,386,387Z" style="fill:#000000"></path><path d="M386,268.68v3a1.76,1.76,0,0,1-1,1.45,5.51,5.51,0,0,1-5,0,1.76,1.76,0,0,1-1-1.45v-3a1.76,1.76,0,0,0,1,1.45,5.57,5.57,0,0,0,5,0A1.76,1.76,0,0,0,386,268.68Z" style="fill:#000000"></path><path d="M386,276.53v3a1.76,1.76,0,0,1-1,1.45,5.51,5.51,0,0,1-5,0,1.76,1.76,0,0,1-1-1.45v-3a1.76,1.76,0,0,0,1,1.45,5.57,5.57,0,0,0,5,0A1.76,1.76,0,0,0,386,276.53Z" style="fill:#000000"></path><path d="M386,284.38v3a1.76,1.76,0,0,1-1,1.45,5.51,5.51,0,0,1-5,0,1.76,1.76,0,0,1-1-1.45v-3a1.76,1.76,0,0,0,1,1.45,5.57,5.57,0,0,0,5,0A1.76,1.76,0,0,0,386,284.38Z" style="fill:#000000"></path><path d="M379.9,256.09a1.53,1.53,0,0,0,0,2.9,5.55,5.55,0,0,0,5,0,1.53,1.53,0,0,0,0-2.9A5.55,5.55,0,0,0,379.9,256.09Z" style="fill:#455a64"></path><path d="M369.23,266.18a.62.62,0,0,1-.61-.06,1.92,1.92,0,0,1-.87-1.5.59.59,0,0,1,.26-.55l13.58-7.85a.6.6,0,0,1,.61.06,1.88,1.88,0,0,1,.86,1.49.61.61,0,0,1-.25.56Z" style="fill:#263238"></path><path d="M367.75,264.62a.59.59,0,0,1,.26-.55.6.6,0,0,1,.61.06,1.91,1.91,0,0,1,.86,1.49.52.52,0,0,1-.86.5A1.92,1.92,0,0,1,367.75,264.62Z" style="fill:#37474f"></path><path d="M376.26,259.3l1.48-.86a1.75,1.75,0,0,1,.9.76,1.79,1.79,0,0,1,.26,1.39l-1.3.75a1.8,1.8,0,0,0,2.26.34c1.16-.69,1-2.23.3-3.34s-1.82-1.78-3-1.12A2.05,2.05,0,0,0,376.26,259.3Z" style="fill:#455a64"></path><path d="M374.89,260.09l1.47-.86a1.71,1.71,0,0,1,.9.76,1.79,1.79,0,0,1,.26,1.39l-1.29.75a1.79,1.79,0,0,0,2.26.34c1.16-.69,1-2.22.3-3.34s-1.83-1.78-3-1.12A2,2,0,0,0,374.89,260.09Z" style="fill:#455a64"></path><path d="M378.49,262.47c2-1.49-.39-5.62-2.7-4.46a1.81,1.81,0,0,1,1.79-.14c1.57.72,2.72,3.56.91,4.6Z" style="fill:#37474f"></path><path d="M373.51,260.88,375,260a1.69,1.69,0,0,1,.9.75,1.79,1.79,0,0,1,.26,1.39l-1.3.75a1.79,1.79,0,0,0,2.26.34c1.16-.69,1-2.22.3-3.33s-1.83-1.79-3-1.13A2.05,2.05,0,0,0,373.51,260.88Z" style="fill:#455a64"></path><path d="M377.11,263.26c2-1.49-.39-5.62-2.69-4.46a1.8,1.8,0,0,1,1.78-.14c1.58.72,2.73,3.57.91,4.6Z" style="fill:#37474f"></path><path d="M372.14,261.67l1.47-.85a1.71,1.71,0,0,1,.9.76,1.77,1.77,0,0,1,.26,1.38l-1.29.75a1.79,1.79,0,0,0,2.26.35c1.16-.69,1-2.23.3-3.34s-1.83-1.79-3-1.13A2,2,0,0,0,372.14,261.67Z" style="fill:#455a64"></path><path d="M375.74,264.06c2-1.5-.4-5.63-2.7-4.47a1.84,1.84,0,0,1,1.79-.13c1.57.71,2.72,3.56.91,4.6Z" style="fill:#37474f"></path><path d="M370.76,262.47l1.48-.86a1.75,1.75,0,0,1,.9.76,1.84,1.84,0,0,1,.26,1.39l-1.3.75a1.79,1.79,0,0,0,2.26.34c1.16-.69,1-2.23.3-3.34s-1.83-1.78-3-1.12A2.06,2.06,0,0,0,370.76,262.47Z" style="fill:#455a64"></path><path d="M374.36,264.85c2-1.49-.39-5.62-2.7-4.46a1.82,1.82,0,0,1,1.79-.14c1.58.72,2.73,3.56.91,4.6Z" style="fill:#37474f"></path><path d="M355,274.35a.63.63,0,0,1-.61-.06,1.94,1.94,0,0,1-.86-1.5.61.61,0,0,1,.25-.55l13.59-7.85a.6.6,0,0,1,.61.06,1.91,1.91,0,0,1,.86,1.49.63.63,0,0,1-.25.56Z" style="fill:#263238"></path><path d="M353.52,272.79a.61.61,0,0,1,.25-.55.6.6,0,0,1,.61.06,1.88,1.88,0,0,1,.86,1.49.61.61,0,0,1-.25.56.63.63,0,0,1-.61-.06A1.94,1.94,0,0,1,353.52,272.79Z" style="fill:#37474f"></path><path d="M362,267.47l1.48-.86a1.75,1.75,0,0,1,.9.76,1.84,1.84,0,0,1,.26,1.39l-1.3.75a1.79,1.79,0,0,0,2.26.34c1.16-.69,1-2.23.3-3.34s-1.83-1.78-3-1.12A2.06,2.06,0,0,0,362,267.47Z" style="fill:#455a64"></path><path d="M360.65,268.26l1.48-.86a1.75,1.75,0,0,1,.9.76,1.79,1.79,0,0,1,.26,1.39l-1.3.75a1.8,1.8,0,0,0,2.26.34c1.16-.69,1-2.22.31-3.34s-1.83-1.78-3-1.12A2.05,2.05,0,0,0,360.65,268.26Z" style="fill:#455a64"></path><path d="M364.25,270.64c2-1.49-.39-5.62-2.69-4.46a1.8,1.8,0,0,1,1.78-.14c1.58.72,2.73,3.56.91,4.6Z" style="fill:#37474f"></path><path d="M359.28,269.05l1.48-.85a1.69,1.69,0,0,1,.9.75,1.84,1.84,0,0,1,.26,1.39l-1.3.75a1.79,1.79,0,0,0,2.26.34c1.16-.69,1-2.22.3-3.33s-1.83-1.79-3-1.13A2,2,0,0,0,359.28,269.05Z" style="fill:#455a64"></path><path d="M362.88,271.43c2-1.49-.39-5.62-2.7-4.46a1.81,1.81,0,0,1,1.79-.14c1.57.72,2.72,3.57.91,4.6Z" style="fill:#37474f"></path><path d="M357.9,269.84l1.48-.85a1.75,1.75,0,0,1,.9.76,1.77,1.77,0,0,1,.26,1.38l-1.3.75a1.79,1.79,0,0,0,2.26.35c1.16-.69,1-2.23.3-3.34s-1.82-1.79-3-1.13A2.06,2.06,0,0,0,357.9,269.84Z" style="fill:#455a64"></path><path d="M361.5,272.23c2-1.5-.39-5.63-2.69-4.47a1.82,1.82,0,0,1,1.78-.13c1.58.71,2.73,3.56.91,4.6Z" style="fill:#37474f"></path><path d="M356.53,270.64l1.47-.86a1.71,1.71,0,0,1,.9.76,1.79,1.79,0,0,1,.26,1.39l-1.29.75a1.79,1.79,0,0,0,2.26.34c1.16-.69,1-2.23.3-3.34s-1.83-1.78-3-1.12A2,2,0,0,0,356.53,270.64Z" style="fill:#455a64"></path><path d="M360.13,273c2-1.49-.39-5.62-2.7-4.46a1.81,1.81,0,0,1,1.79-.14c1.57.72,2.72,3.56.91,4.6Z" style="fill:#37474f"></path></g></g></svg>
